<mxfile host="app.diagrams.net" modified="2024-06-15T14:31:02.665Z" agent="Mozilla/5.0 (Windows NT 10.0; Win64; x64) AppleWebKit/537.36 (KHTML, like Gecko) Chrome/125.0.0.0 Safari/537.36" etag="NzQTFIsMyyfQ9BcW-YQG" version="24.5.4" type="google">
  <diagram name="Page-1" id="Mx_TJPqlLDOj_vrMiOb7">
    <mxGraphModel grid="1" page="1" gridSize="10" guides="1" tooltips="1" connect="1" arrows="1" fold="1" pageScale="1" pageWidth="850" pageHeight="1100" math="0" shadow="0">
      <root>
        <mxCell id="0" />
        <mxCell id="1" parent="0" />
        <mxCell id="K6dq46eCguO7hU9ySryx-1" value="&lt;span style=&quot;font-size: 20px;&quot;&gt;&lt;b&gt;&lt;i&gt;ejercicio_16_EstacionMeteorologica&lt;/i&gt;&lt;/b&gt;&lt;/span&gt;" style="text;html=1;align=center;verticalAlign=middle;resizable=0;points=[];autosize=1;strokeColor=none;fillColor=none;" vertex="1" parent="1">
          <mxGeometry x="990" y="-2280" width="370" height="40" as="geometry" />
        </mxCell>
        <mxCell id="K6dq46eCguO7hU9ySryx-2" value="&lt;b style=&quot;&quot;&gt;&lt;i&gt;&lt;font style=&quot;font-size: 20px;&quot;&gt;Patron Decorator y &lt;font color=&quot;#009900&quot;&gt;Patron Adapter&lt;/font&gt;&lt;/font&gt;&lt;/i&gt;&lt;/b&gt;" style="text;html=1;align=center;verticalAlign=middle;resizable=0;points=[];autosize=1;strokeColor=none;fillColor=none;" vertex="1" parent="1">
          <mxGeometry x="40" y="-3400" width="350" height="40" as="geometry" />
        </mxCell>
        <mxCell id="K6dq46eCguO7hU9ySryx-168" style="edgeStyle=orthogonalEdgeStyle;rounded=0;orthogonalLoop=1;jettySize=auto;html=1;endSize=12;startSize=12;startArrow=diamondThin;startFill=0;" edge="1" parent="1" source="K6dq46eCguO7hU9ySryx-62" target="K6dq46eCguO7hU9ySryx-122">
          <mxGeometry relative="1" as="geometry">
            <Array as="points">
              <mxPoint x="900" y="-3180" />
            </Array>
          </mxGeometry>
        </mxCell>
        <mxCell id="izaJb8q6CuFdLfl8Feap-18" style="edgeStyle=orthogonalEdgeStyle;rounded=0;orthogonalLoop=1;jettySize=auto;html=1;endSize=12;startSize=12;endArrow=block;endFill=0;dashed=1;dashPattern=8 8;" edge="1" parent="1" source="K6dq46eCguO7hU9ySryx-62" target="K6dq46eCguO7hU9ySryx-122">
          <mxGeometry relative="1" as="geometry">
            <Array as="points">
              <mxPoint x="660" y="-2920" />
            </Array>
          </mxGeometry>
        </mxCell>
        <mxCell id="K6dq46eCguO7hU9ySryx-62" value="Dato" style="swimlane;fontStyle=0;align=center;verticalAlign=top;childLayout=stackLayout;horizontal=1;startSize=30;horizontalStack=0;resizeParent=1;resizeLast=0;collapsible=1;marginBottom=0;rounded=0;shadow=0;strokeWidth=1;fillColor=#fff2cc;strokeColor=#d6b656;" vertex="1" parent="1">
          <mxGeometry x="800" y="-3010" width="200" height="180" as="geometry">
            <mxRectangle x="110" y="-20" width="160" height="26" as="alternateBounds" />
          </mxGeometry>
        </mxCell>
        <mxCell id="K6dq46eCguO7hU9ySryx-63" value="" style="line;html=1;strokeWidth=1;align=left;verticalAlign=middle;spacingTop=-1;spacingLeft=3;spacingRight=3;rotatable=0;labelPosition=right;points=[];portConstraint=eastwest;" vertex="1" parent="K6dq46eCguO7hU9ySryx-62">
          <mxGeometry y="30" width="200" height="8" as="geometry" />
        </mxCell>
        <mxCell id="K6dq46eCguO7hU9ySryx-138" value="+ displayData() : String&#xa;" style="text;align=left;verticalAlign=top;spacingLeft=4;spacingRight=4;overflow=hidden;rotatable=0;points=[[0,0.5],[1,0.5]];portConstraint=eastwest;rounded=0;shadow=0;html=0;" vertex="1" parent="K6dq46eCguO7hU9ySryx-62">
          <mxGeometry y="38" width="200" height="24" as="geometry" />
        </mxCell>
        <mxCell id="K6dq46eCguO7hU9ySryx-137" value="+ getTemperaturas() : Real[*]&#xa;" style="text;align=left;verticalAlign=top;spacingLeft=4;spacingRight=4;overflow=hidden;rotatable=0;points=[[0,0.5],[1,0.5]];portConstraint=eastwest;rounded=0;shadow=0;html=0;" vertex="1" parent="K6dq46eCguO7hU9ySryx-62">
          <mxGeometry y="62" width="200" height="24" as="geometry" />
        </mxCell>
        <mxCell id="K6dq46eCguO7hU9ySryx-136" value="+ getRadiacionSolar() : Real" style="text;align=left;verticalAlign=top;spacingLeft=4;spacingRight=4;overflow=hidden;rotatable=0;points=[[0,0.5],[1,0.5]];portConstraint=eastwest;rounded=0;shadow=0;html=0;" vertex="1" parent="K6dq46eCguO7hU9ySryx-62">
          <mxGeometry y="86" width="200" height="24" as="geometry" />
        </mxCell>
        <mxCell id="K6dq46eCguO7hU9ySryx-135" value="+ getPresion() : Real&#xa;" style="text;align=left;verticalAlign=top;spacingLeft=4;spacingRight=4;overflow=hidden;rotatable=0;points=[[0,0.5],[1,0.5]];portConstraint=eastwest;rounded=0;shadow=0;html=0;" vertex="1" parent="K6dq46eCguO7hU9ySryx-62">
          <mxGeometry y="110" width="200" height="24" as="geometry" />
        </mxCell>
        <mxCell id="K6dq46eCguO7hU9ySryx-134" value="+ getTemperatura() : Real&#xa;" style="text;align=left;verticalAlign=top;spacingLeft=4;spacingRight=4;overflow=hidden;rotatable=0;points=[[0,0.5],[1,0.5]];portConstraint=eastwest;rounded=0;shadow=0;html=0;" vertex="1" parent="K6dq46eCguO7hU9ySryx-62">
          <mxGeometry y="134" width="200" height="24" as="geometry" />
        </mxCell>
        <mxCell id="K6dq46eCguO7hU9ySryx-65" value="&lt;font size=&quot;1&quot; style=&quot;&quot;&gt;&lt;b style=&quot;&quot;&gt;&lt;i style=&quot;font-size: 14px;&quot;&gt;Decorartor&lt;/i&gt;&lt;/b&gt;&lt;/font&gt;" style="text;html=1;align=center;verticalAlign=middle;whiteSpace=wrap;rounded=0;fontSize=16;" vertex="1" parent="1">
          <mxGeometry x="800" y="-3030" width="80" height="20" as="geometry" />
        </mxCell>
        <mxCell id="K6dq46eCguO7hU9ySryx-160" style="edgeStyle=orthogonalEdgeStyle;rounded=0;orthogonalLoop=1;jettySize=auto;html=1;endSize=12;startSize=12;endArrow=block;endFill=0;" edge="1" parent="1" source="K6dq46eCguO7hU9ySryx-67" target="K6dq46eCguO7hU9ySryx-62">
          <mxGeometry relative="1" as="geometry">
            <Array as="points">
              <mxPoint x="600" y="-2780" />
              <mxPoint x="900" y="-2780" />
            </Array>
          </mxGeometry>
        </mxCell>
        <mxCell id="K6dq46eCguO7hU9ySryx-67" value="DatoCelsius" style="swimlane;fontStyle=0;align=center;verticalAlign=top;childLayout=stackLayout;horizontal=1;startSize=30;horizontalStack=0;resizeParent=1;resizeLast=0;collapsible=1;marginBottom=0;rounded=0;shadow=0;strokeWidth=1;fillColor=#fff2cc;strokeColor=#d6b656;" vertex="1" parent="1">
          <mxGeometry x="520" y="-2740" width="160" height="70" as="geometry">
            <mxRectangle x="110" y="-20" width="160" height="26" as="alternateBounds" />
          </mxGeometry>
        </mxCell>
        <mxCell id="K6dq46eCguO7hU9ySryx-68" value="" style="line;html=1;strokeWidth=1;align=left;verticalAlign=middle;spacingTop=-1;spacingLeft=3;spacingRight=3;rotatable=0;labelPosition=right;points=[];portConstraint=eastwest;" vertex="1" parent="K6dq46eCguO7hU9ySryx-67">
          <mxGeometry y="30" width="160" height="8" as="geometry" />
        </mxCell>
        <mxCell id="K6dq46eCguO7hU9ySryx-69" value="+ prettyPrint() : String" style="text;align=left;verticalAlign=top;spacingLeft=4;spacingRight=4;overflow=hidden;rotatable=0;points=[[0,0.5],[1,0.5]];portConstraint=eastwest;rounded=0;shadow=0;html=0;" vertex="1" parent="K6dq46eCguO7hU9ySryx-67">
          <mxGeometry y="38" width="160" height="24" as="geometry" />
        </mxCell>
        <mxCell id="K6dq46eCguO7hU9ySryx-70" value="&lt;font style=&quot;font-size: 12px;&quot;&gt;&lt;b style=&quot;font-size: 12px;&quot;&gt;&lt;i style=&quot;font-size: 12px;&quot;&gt;Concrete Decorator&lt;/i&gt;&lt;/b&gt;&lt;/font&gt;" style="text;html=1;align=center;verticalAlign=middle;whiteSpace=wrap;rounded=0;fontSize=12;" vertex="1" parent="1">
          <mxGeometry x="520" y="-2766" width="70" height="20" as="geometry" />
        </mxCell>
        <mxCell id="K6dq46eCguO7hU9ySryx-164" style="edgeStyle=orthogonalEdgeStyle;rounded=0;orthogonalLoop=1;jettySize=auto;html=1;endSize=12;startSize=12;endArrow=block;endFill=0;" edge="1" parent="1" source="K6dq46eCguO7hU9ySryx-72" target="K6dq46eCguO7hU9ySryx-62">
          <mxGeometry relative="1" as="geometry">
            <Array as="points">
              <mxPoint x="600" y="-2620" />
              <mxPoint x="900" y="-2620" />
            </Array>
          </mxGeometry>
        </mxCell>
        <mxCell id="K6dq46eCguO7hU9ySryx-72" value="DatoFarenheit" style="swimlane;fontStyle=0;align=center;verticalAlign=top;childLayout=stackLayout;horizontal=1;startSize=30;horizontalStack=0;resizeParent=1;resizeLast=0;collapsible=1;marginBottom=0;rounded=0;shadow=0;strokeWidth=1;fillColor=#fff2cc;strokeColor=#d6b656;" vertex="1" parent="1">
          <mxGeometry x="520" y="-2580" width="160" height="70" as="geometry">
            <mxRectangle x="110" y="-20" width="160" height="26" as="alternateBounds" />
          </mxGeometry>
        </mxCell>
        <mxCell id="K6dq46eCguO7hU9ySryx-73" value="" style="line;html=1;strokeWidth=1;align=left;verticalAlign=middle;spacingTop=-1;spacingLeft=3;spacingRight=3;rotatable=0;labelPosition=right;points=[];portConstraint=eastwest;" vertex="1" parent="K6dq46eCguO7hU9ySryx-72">
          <mxGeometry y="30" width="160" height="8" as="geometry" />
        </mxCell>
        <mxCell id="K6dq46eCguO7hU9ySryx-74" value="+ prettyPrint() : String" style="text;align=left;verticalAlign=top;spacingLeft=4;spacingRight=4;overflow=hidden;rotatable=0;points=[[0,0.5],[1,0.5]];portConstraint=eastwest;rounded=0;shadow=0;html=0;" vertex="1" parent="K6dq46eCguO7hU9ySryx-72">
          <mxGeometry y="38" width="160" height="24" as="geometry" />
        </mxCell>
        <mxCell id="K6dq46eCguO7hU9ySryx-162" style="edgeStyle=orthogonalEdgeStyle;rounded=0;orthogonalLoop=1;jettySize=auto;html=1;endSize=12;startSize=12;endArrow=block;endFill=0;" edge="1" parent="1" source="K6dq46eCguO7hU9ySryx-77" target="K6dq46eCguO7hU9ySryx-62">
          <mxGeometry relative="1" as="geometry">
            <Array as="points">
              <mxPoint x="700" y="-2460" />
              <mxPoint x="900" y="-2460" />
            </Array>
          </mxGeometry>
        </mxCell>
        <mxCell id="K6dq46eCguO7hU9ySryx-77" value="DatoPresion" style="swimlane;fontStyle=0;align=center;verticalAlign=top;childLayout=stackLayout;horizontal=1;startSize=30;horizontalStack=0;resizeParent=1;resizeLast=0;collapsible=1;marginBottom=0;rounded=0;shadow=0;strokeWidth=1;fillColor=#fff2cc;strokeColor=#d6b656;" vertex="1" parent="1">
          <mxGeometry x="620" y="-2410" width="160" height="70" as="geometry">
            <mxRectangle x="110" y="-20" width="160" height="26" as="alternateBounds" />
          </mxGeometry>
        </mxCell>
        <mxCell id="K6dq46eCguO7hU9ySryx-78" value="" style="line;html=1;strokeWidth=1;align=left;verticalAlign=middle;spacingTop=-1;spacingLeft=3;spacingRight=3;rotatable=0;labelPosition=right;points=[];portConstraint=eastwest;" vertex="1" parent="K6dq46eCguO7hU9ySryx-77">
          <mxGeometry y="30" width="160" height="8" as="geometry" />
        </mxCell>
        <mxCell id="K6dq46eCguO7hU9ySryx-79" value="+ prettyPrint() : String" style="text;align=left;verticalAlign=top;spacingLeft=4;spacingRight=4;overflow=hidden;rotatable=0;points=[[0,0.5],[1,0.5]];portConstraint=eastwest;rounded=0;shadow=0;html=0;" vertex="1" parent="K6dq46eCguO7hU9ySryx-77">
          <mxGeometry y="38" width="160" height="24" as="geometry" />
        </mxCell>
        <mxCell id="K6dq46eCguO7hU9ySryx-161" style="edgeStyle=orthogonalEdgeStyle;rounded=0;orthogonalLoop=1;jettySize=auto;html=1;endSize=12;startSize=12;endArrow=block;endFill=0;" edge="1" parent="1" source="K6dq46eCguO7hU9ySryx-82" target="K6dq46eCguO7hU9ySryx-62">
          <mxGeometry relative="1" as="geometry">
            <Array as="points">
              <mxPoint x="800" y="-2780" />
              <mxPoint x="900" y="-2780" />
            </Array>
          </mxGeometry>
        </mxCell>
        <mxCell id="K6dq46eCguO7hU9ySryx-82" value="DatoPromedioCelsius" style="swimlane;fontStyle=0;align=center;verticalAlign=top;childLayout=stackLayout;horizontal=1;startSize=30;horizontalStack=0;resizeParent=1;resizeLast=0;collapsible=1;marginBottom=0;rounded=0;shadow=0;strokeWidth=1;fillColor=#fff2cc;strokeColor=#d6b656;" vertex="1" parent="1">
          <mxGeometry x="720" y="-2740" width="160" height="70" as="geometry">
            <mxRectangle x="110" y="-20" width="160" height="26" as="alternateBounds" />
          </mxGeometry>
        </mxCell>
        <mxCell id="K6dq46eCguO7hU9ySryx-83" value="" style="line;html=1;strokeWidth=1;align=left;verticalAlign=middle;spacingTop=-1;spacingLeft=3;spacingRight=3;rotatable=0;labelPosition=right;points=[];portConstraint=eastwest;" vertex="1" parent="K6dq46eCguO7hU9ySryx-82">
          <mxGeometry y="30" width="160" height="8" as="geometry" />
        </mxCell>
        <mxCell id="K6dq46eCguO7hU9ySryx-84" value="+ prettyPrint() : String" style="text;align=left;verticalAlign=top;spacingLeft=4;spacingRight=4;overflow=hidden;rotatable=0;points=[[0,0.5],[1,0.5]];portConstraint=eastwest;rounded=0;shadow=0;html=0;" vertex="1" parent="K6dq46eCguO7hU9ySryx-82">
          <mxGeometry y="38" width="160" height="24" as="geometry" />
        </mxCell>
        <mxCell id="K6dq46eCguO7hU9ySryx-165" style="edgeStyle=orthogonalEdgeStyle;rounded=0;orthogonalLoop=1;jettySize=auto;html=1;endSize=12;startSize=12;endArrow=block;endFill=0;" edge="1" parent="1" source="K6dq46eCguO7hU9ySryx-87" target="K6dq46eCguO7hU9ySryx-62">
          <mxGeometry relative="1" as="geometry">
            <Array as="points">
              <mxPoint x="800" y="-2620" />
              <mxPoint x="900" y="-2620" />
            </Array>
          </mxGeometry>
        </mxCell>
        <mxCell id="K6dq46eCguO7hU9ySryx-87" value="DatoPromedioFahrenheit" style="swimlane;fontStyle=0;align=center;verticalAlign=top;childLayout=stackLayout;horizontal=1;startSize=30;horizontalStack=0;resizeParent=1;resizeLast=0;collapsible=1;marginBottom=0;rounded=0;shadow=0;strokeWidth=1;fillColor=#fff2cc;strokeColor=#d6b656;" vertex="1" parent="1">
          <mxGeometry x="720" y="-2580" width="160" height="70" as="geometry">
            <mxRectangle x="110" y="-20" width="160" height="26" as="alternateBounds" />
          </mxGeometry>
        </mxCell>
        <mxCell id="K6dq46eCguO7hU9ySryx-88" value="" style="line;html=1;strokeWidth=1;align=left;verticalAlign=middle;spacingTop=-1;spacingLeft=3;spacingRight=3;rotatable=0;labelPosition=right;points=[];portConstraint=eastwest;" vertex="1" parent="K6dq46eCguO7hU9ySryx-87">
          <mxGeometry y="30" width="160" height="8" as="geometry" />
        </mxCell>
        <mxCell id="K6dq46eCguO7hU9ySryx-89" value="+ prettyPrint() : String" style="text;align=left;verticalAlign=top;spacingLeft=4;spacingRight=4;overflow=hidden;rotatable=0;points=[[0,0.5],[1,0.5]];portConstraint=eastwest;rounded=0;shadow=0;html=0;" vertex="1" parent="K6dq46eCguO7hU9ySryx-87">
          <mxGeometry y="38" width="160" height="24" as="geometry" />
        </mxCell>
        <mxCell id="K6dq46eCguO7hU9ySryx-157" style="edgeStyle=orthogonalEdgeStyle;rounded=0;orthogonalLoop=1;jettySize=auto;html=1;endArrow=block;endFill=0;endSize=12;startSize=12;" edge="1" parent="1" source="K6dq46eCguO7hU9ySryx-92" target="K6dq46eCguO7hU9ySryx-62">
          <mxGeometry relative="1" as="geometry" />
        </mxCell>
        <mxCell id="K6dq46eCguO7hU9ySryx-92" value="DatoRadiacion" style="swimlane;fontStyle=0;align=center;verticalAlign=top;childLayout=stackLayout;horizontal=1;startSize=30;horizontalStack=0;resizeParent=1;resizeLast=0;collapsible=1;marginBottom=0;rounded=0;shadow=0;strokeWidth=1;fillColor=#fff2cc;strokeColor=#d6b656;" vertex="1" parent="1">
          <mxGeometry x="820" y="-2410" width="160" height="70" as="geometry">
            <mxRectangle x="110" y="-20" width="160" height="26" as="alternateBounds" />
          </mxGeometry>
        </mxCell>
        <mxCell id="K6dq46eCguO7hU9ySryx-93" value="" style="line;html=1;strokeWidth=1;align=left;verticalAlign=middle;spacingTop=-1;spacingLeft=3;spacingRight=3;rotatable=0;labelPosition=right;points=[];portConstraint=eastwest;" vertex="1" parent="K6dq46eCguO7hU9ySryx-92">
          <mxGeometry y="30" width="160" height="8" as="geometry" />
        </mxCell>
        <mxCell id="K6dq46eCguO7hU9ySryx-94" value="+ prettyPrint() : String" style="text;align=left;verticalAlign=top;spacingLeft=4;spacingRight=4;overflow=hidden;rotatable=0;points=[[0,0.5],[1,0.5]];portConstraint=eastwest;rounded=0;shadow=0;html=0;" vertex="1" parent="K6dq46eCguO7hU9ySryx-92">
          <mxGeometry y="38" width="160" height="24" as="geometry" />
        </mxCell>
        <mxCell id="K6dq46eCguO7hU9ySryx-163" style="edgeStyle=orthogonalEdgeStyle;rounded=0;orthogonalLoop=1;jettySize=auto;html=1;endSize=12;startSize=12;endArrow=block;endFill=0;" edge="1" parent="1" source="K6dq46eCguO7hU9ySryx-96" target="K6dq46eCguO7hU9ySryx-62">
          <mxGeometry relative="1" as="geometry">
            <Array as="points">
              <mxPoint x="1100" y="-2460" />
              <mxPoint x="900" y="-2460" />
            </Array>
          </mxGeometry>
        </mxCell>
        <mxCell id="K6dq46eCguO7hU9ySryx-96" value="DatoTemperaturas" style="swimlane;fontStyle=0;align=center;verticalAlign=top;childLayout=stackLayout;horizontal=1;startSize=30;horizontalStack=0;resizeParent=1;resizeLast=0;collapsible=1;marginBottom=0;rounded=0;shadow=0;strokeWidth=1;fillColor=#fff2cc;strokeColor=#d6b656;" vertex="1" parent="1">
          <mxGeometry x="1020" y="-2410" width="160" height="70" as="geometry">
            <mxRectangle x="110" y="-20" width="160" height="26" as="alternateBounds" />
          </mxGeometry>
        </mxCell>
        <mxCell id="K6dq46eCguO7hU9ySryx-97" value="" style="line;html=1;strokeWidth=1;align=left;verticalAlign=middle;spacingTop=-1;spacingLeft=3;spacingRight=3;rotatable=0;labelPosition=right;points=[];portConstraint=eastwest;" vertex="1" parent="K6dq46eCguO7hU9ySryx-96">
          <mxGeometry y="30" width="160" height="8" as="geometry" />
        </mxCell>
        <mxCell id="K6dq46eCguO7hU9ySryx-98" value="+ prettyPrint() : String" style="text;align=left;verticalAlign=top;spacingLeft=4;spacingRight=4;overflow=hidden;rotatable=0;points=[[0,0.5],[1,0.5]];portConstraint=eastwest;rounded=0;shadow=0;html=0;" vertex="1" parent="K6dq46eCguO7hU9ySryx-96">
          <mxGeometry y="38" width="160" height="24" as="geometry" />
        </mxCell>
        <mxCell id="K6dq46eCguO7hU9ySryx-171" style="edgeStyle=orthogonalEdgeStyle;rounded=0;orthogonalLoop=1;jettySize=auto;html=1;endSize=12;startSize=12;endArrow=block;endFill=0;dashed=1;dashPattern=8 8;" edge="1" parent="1" source="K6dq46eCguO7hU9ySryx-100" target="K6dq46eCguO7hU9ySryx-122">
          <mxGeometry relative="1" as="geometry">
            <Array as="points">
              <mxPoint x="540" y="-2920" />
            </Array>
          </mxGeometry>
        </mxCell>
        <mxCell id="K6dq46eCguO7hU9ySryx-100" value="HomeWeatherStation" style="swimlane;fontStyle=0;align=center;verticalAlign=top;childLayout=stackLayout;horizontal=1;startSize=30;horizontalStack=0;resizeParent=1;resizeLast=0;collapsible=1;marginBottom=0;rounded=0;shadow=0;strokeWidth=1;fillColor=#fff2cc;strokeColor=#d6b656;" vertex="1" parent="1">
          <mxGeometry x="160" y="-3020" width="200" height="254" as="geometry">
            <mxRectangle x="110" y="-20" width="160" height="26" as="alternateBounds" />
          </mxGeometry>
        </mxCell>
        <mxCell id="K6dq46eCguO7hU9ySryx-117" value="+ temperatura : Real" style="text;align=left;verticalAlign=top;spacingLeft=4;spacingRight=4;overflow=hidden;rotatable=0;points=[[0,0.5],[1,0.5]];portConstraint=eastwest;rounded=0;shadow=0;html=0;" vertex="1" parent="K6dq46eCguO7hU9ySryx-100">
          <mxGeometry y="30" width="200" height="24" as="geometry" />
        </mxCell>
        <mxCell id="K6dq46eCguO7hU9ySryx-116" value="+ presion: Real" style="text;align=left;verticalAlign=top;spacingLeft=4;spacingRight=4;overflow=hidden;rotatable=0;points=[[0,0.5],[1,0.5]];portConstraint=eastwest;rounded=0;shadow=0;html=0;" vertex="1" parent="K6dq46eCguO7hU9ySryx-100">
          <mxGeometry y="54" width="200" height="24" as="geometry" />
        </mxCell>
        <mxCell id="K6dq46eCguO7hU9ySryx-119" value="+ readiacionSolar: Real" style="text;align=left;verticalAlign=top;spacingLeft=4;spacingRight=4;overflow=hidden;rotatable=0;points=[[0,0.5],[1,0.5]];portConstraint=eastwest;rounded=0;shadow=0;html=0;" vertex="1" parent="K6dq46eCguO7hU9ySryx-100">
          <mxGeometry y="78" width="200" height="24" as="geometry" />
        </mxCell>
        <mxCell id="K6dq46eCguO7hU9ySryx-118" value="+ temperatura : Real&#xa;" style="text;align=left;verticalAlign=top;spacingLeft=4;spacingRight=4;overflow=hidden;rotatable=0;points=[[0,0.5],[1,0.5]];portConstraint=eastwest;rounded=0;shadow=0;html=0;" vertex="1" parent="K6dq46eCguO7hU9ySryx-100">
          <mxGeometry y="102" width="200" height="24" as="geometry" />
        </mxCell>
        <mxCell id="K6dq46eCguO7hU9ySryx-101" value="" style="line;html=1;strokeWidth=1;align=left;verticalAlign=middle;spacingTop=-1;spacingLeft=3;spacingRight=3;rotatable=0;labelPosition=right;points=[];portConstraint=eastwest;" vertex="1" parent="K6dq46eCguO7hU9ySryx-100">
          <mxGeometry y="126" width="200" height="8" as="geometry" />
        </mxCell>
        <mxCell id="K6dq46eCguO7hU9ySryx-102" value="+ getTemperatura() : Real&#xa;" style="text;align=left;verticalAlign=top;spacingLeft=4;spacingRight=4;overflow=hidden;rotatable=0;points=[[0,0.5],[1,0.5]];portConstraint=eastwest;rounded=0;shadow=0;html=0;" vertex="1" parent="K6dq46eCguO7hU9ySryx-100">
          <mxGeometry y="134" width="200" height="24" as="geometry" />
        </mxCell>
        <mxCell id="K6dq46eCguO7hU9ySryx-105" value="+ getPresion() : Real&#xa;" style="text;align=left;verticalAlign=top;spacingLeft=4;spacingRight=4;overflow=hidden;rotatable=0;points=[[0,0.5],[1,0.5]];portConstraint=eastwest;rounded=0;shadow=0;html=0;" vertex="1" parent="K6dq46eCguO7hU9ySryx-100">
          <mxGeometry y="158" width="200" height="24" as="geometry" />
        </mxCell>
        <mxCell id="K6dq46eCguO7hU9ySryx-106" value="+ getRadiacionSolar() : Real" style="text;align=left;verticalAlign=top;spacingLeft=4;spacingRight=4;overflow=hidden;rotatable=0;points=[[0,0.5],[1,0.5]];portConstraint=eastwest;rounded=0;shadow=0;html=0;" vertex="1" parent="K6dq46eCguO7hU9ySryx-100">
          <mxGeometry y="182" width="200" height="24" as="geometry" />
        </mxCell>
        <mxCell id="K6dq46eCguO7hU9ySryx-108" value="+ getTemperaturas() : Real[*]&#xa;" style="text;align=left;verticalAlign=top;spacingLeft=4;spacingRight=4;overflow=hidden;rotatable=0;points=[[0,0.5],[1,0.5]];portConstraint=eastwest;rounded=0;shadow=0;html=0;" vertex="1" parent="K6dq46eCguO7hU9ySryx-100">
          <mxGeometry y="206" width="200" height="24" as="geometry" />
        </mxCell>
        <mxCell id="K6dq46eCguO7hU9ySryx-107" value="+ displayData() : String&#xa;" style="text;align=left;verticalAlign=top;spacingLeft=4;spacingRight=4;overflow=hidden;rotatable=0;points=[[0,0.5],[1,0.5]];portConstraint=eastwest;rounded=0;shadow=0;html=0;" vertex="1" parent="K6dq46eCguO7hU9ySryx-100">
          <mxGeometry y="230" width="200" height="24" as="geometry" />
        </mxCell>
        <mxCell id="K6dq46eCguO7hU9ySryx-120" style="edgeStyle=orthogonalEdgeStyle;rounded=0;orthogonalLoop=1;jettySize=auto;html=1;endSize=12;startSize=12;" edge="1" parent="1" source="K6dq46eCguO7hU9ySryx-109" target="K6dq46eCguO7hU9ySryx-100">
          <mxGeometry relative="1" as="geometry" />
        </mxCell>
        <mxCell id="K6dq46eCguO7hU9ySryx-172" style="edgeStyle=orthogonalEdgeStyle;rounded=0;orthogonalLoop=1;jettySize=auto;html=1;endSize=12;startSize=12;endArrow=block;endFill=0;dashed=1;dashPattern=8 8;" edge="1" parent="1" source="K6dq46eCguO7hU9ySryx-109" target="K6dq46eCguO7hU9ySryx-122">
          <mxGeometry relative="1" as="geometry" />
        </mxCell>
        <mxCell id="K6dq46eCguO7hU9ySryx-109" value="HomeWeatherStationAdapter" style="swimlane;fontStyle=0;align=center;verticalAlign=top;childLayout=stackLayout;horizontal=1;startSize=30;horizontalStack=0;resizeParent=1;resizeLast=0;collapsible=1;marginBottom=0;rounded=0;shadow=0;strokeWidth=1;fillColor=#fff2cc;strokeColor=#d6b656;" vertex="1" parent="1">
          <mxGeometry x="160" y="-3280" width="200" height="180" as="geometry">
            <mxRectangle x="110" y="-20" width="160" height="26" as="alternateBounds" />
          </mxGeometry>
        </mxCell>
        <mxCell id="K6dq46eCguO7hU9ySryx-110" value="" style="line;html=1;strokeWidth=1;align=left;verticalAlign=middle;spacingTop=-1;spacingLeft=3;spacingRight=3;rotatable=0;labelPosition=right;points=[];portConstraint=eastwest;" vertex="1" parent="K6dq46eCguO7hU9ySryx-109">
          <mxGeometry y="30" width="200" height="8" as="geometry" />
        </mxCell>
        <mxCell id="K6dq46eCguO7hU9ySryx-111" value="+ getTemperatura() : Real&#xa;" style="text;align=left;verticalAlign=top;spacingLeft=4;spacingRight=4;overflow=hidden;rotatable=0;points=[[0,0.5],[1,0.5]];portConstraint=eastwest;rounded=0;shadow=0;html=0;" vertex="1" parent="K6dq46eCguO7hU9ySryx-109">
          <mxGeometry y="38" width="200" height="24" as="geometry" />
        </mxCell>
        <mxCell id="K6dq46eCguO7hU9ySryx-112" value="+ getPresion() : Real&#xa;" style="text;align=left;verticalAlign=top;spacingLeft=4;spacingRight=4;overflow=hidden;rotatable=0;points=[[0,0.5],[1,0.5]];portConstraint=eastwest;rounded=0;shadow=0;html=0;" vertex="1" parent="K6dq46eCguO7hU9ySryx-109">
          <mxGeometry y="62" width="200" height="24" as="geometry" />
        </mxCell>
        <mxCell id="K6dq46eCguO7hU9ySryx-113" value="+ getRadiacionSolar() : Real" style="text;align=left;verticalAlign=top;spacingLeft=4;spacingRight=4;overflow=hidden;rotatable=0;points=[[0,0.5],[1,0.5]];portConstraint=eastwest;rounded=0;shadow=0;html=0;" vertex="1" parent="K6dq46eCguO7hU9ySryx-109">
          <mxGeometry y="86" width="200" height="24" as="geometry" />
        </mxCell>
        <mxCell id="K6dq46eCguO7hU9ySryx-114" value="+ getTemperaturas() : Real[*]&#xa;" style="text;align=left;verticalAlign=top;spacingLeft=4;spacingRight=4;overflow=hidden;rotatable=0;points=[[0,0.5],[1,0.5]];portConstraint=eastwest;rounded=0;shadow=0;html=0;" vertex="1" parent="K6dq46eCguO7hU9ySryx-109">
          <mxGeometry y="110" width="200" height="24" as="geometry" />
        </mxCell>
        <mxCell id="K6dq46eCguO7hU9ySryx-115" value="+ displayData() : String&#xa;" style="text;align=left;verticalAlign=top;spacingLeft=4;spacingRight=4;overflow=hidden;rotatable=0;points=[[0,0.5],[1,0.5]];portConstraint=eastwest;rounded=0;shadow=0;html=0;" vertex="1" parent="K6dq46eCguO7hU9ySryx-109">
          <mxGeometry y="134" width="200" height="24" as="geometry" />
        </mxCell>
        <mxCell id="K6dq46eCguO7hU9ySryx-122" value="&lt;&lt;Interface&gt;&gt;&#xa;Temperatura" style="swimlane;fontStyle=0;align=center;verticalAlign=top;childLayout=stackLayout;horizontal=1;startSize=40;horizontalStack=0;resizeParent=1;resizeLast=0;collapsible=1;marginBottom=0;rounded=0;shadow=0;strokeWidth=1;fillColor=#fff2cc;strokeColor=#d6b656;" vertex="1" parent="1">
          <mxGeometry x="480" y="-3280" width="240" height="180" as="geometry">
            <mxRectangle x="110" y="-20" width="160" height="26" as="alternateBounds" />
          </mxGeometry>
        </mxCell>
        <mxCell id="K6dq46eCguO7hU9ySryx-123" value="" style="line;html=1;strokeWidth=1;align=left;verticalAlign=middle;spacingTop=-1;spacingLeft=3;spacingRight=3;rotatable=0;labelPosition=right;points=[];portConstraint=eastwest;" vertex="1" parent="K6dq46eCguO7hU9ySryx-122">
          <mxGeometry y="40" width="240" height="8" as="geometry" />
        </mxCell>
        <mxCell id="K6dq46eCguO7hU9ySryx-124" value="+ &lt;&lt;abstract&gt;&gt; getTemperatura() : Real" style="text;align=left;verticalAlign=top;spacingLeft=4;spacingRight=4;overflow=hidden;rotatable=0;points=[[0,0.5],[1,0.5]];portConstraint=eastwest;rounded=0;shadow=0;html=0;" vertex="1" parent="K6dq46eCguO7hU9ySryx-122">
          <mxGeometry y="48" width="240" height="24" as="geometry" />
        </mxCell>
        <mxCell id="K6dq46eCguO7hU9ySryx-125" value="+ &lt;&lt;abstract&gt;&gt; getPresion() : Real" style="text;align=left;verticalAlign=top;spacingLeft=4;spacingRight=4;overflow=hidden;rotatable=0;points=[[0,0.5],[1,0.5]];portConstraint=eastwest;rounded=0;shadow=0;html=0;" vertex="1" parent="K6dq46eCguO7hU9ySryx-122">
          <mxGeometry y="72" width="240" height="24" as="geometry" />
        </mxCell>
        <mxCell id="K6dq46eCguO7hU9ySryx-126" value="+ &lt;&lt;abstract&gt;&gt; getRadiacionSolar() : Real" style="text;align=left;verticalAlign=top;spacingLeft=4;spacingRight=4;overflow=hidden;rotatable=0;points=[[0,0.5],[1,0.5]];portConstraint=eastwest;rounded=0;shadow=0;html=0;" vertex="1" parent="K6dq46eCguO7hU9ySryx-122">
          <mxGeometry y="96" width="240" height="24" as="geometry" />
        </mxCell>
        <mxCell id="K6dq46eCguO7hU9ySryx-127" value="+ &lt;&lt;abstract&gt;&gt; getTemperaturas() : Real[*]" style="text;align=left;verticalAlign=top;spacingLeft=4;spacingRight=4;overflow=hidden;rotatable=0;points=[[0,0.5],[1,0.5]];portConstraint=eastwest;rounded=0;shadow=0;html=0;" vertex="1" parent="K6dq46eCguO7hU9ySryx-122">
          <mxGeometry y="120" width="240" height="24" as="geometry" />
        </mxCell>
        <mxCell id="K6dq46eCguO7hU9ySryx-128" value="+ &lt;&lt;abstract&gt;&gt; displayData() : String" style="text;align=left;verticalAlign=top;spacingLeft=4;spacingRight=4;overflow=hidden;rotatable=0;points=[[0,0.5],[1,0.5]];portConstraint=eastwest;rounded=0;shadow=0;html=0;" vertex="1" parent="K6dq46eCguO7hU9ySryx-122">
          <mxGeometry y="144" width="240" height="24" as="geometry" />
        </mxCell>
        <mxCell id="K6dq46eCguO7hU9ySryx-159" style="edgeStyle=orthogonalEdgeStyle;rounded=0;orthogonalLoop=1;jettySize=auto;html=1;endSize=12;startSize=12;endArrow=block;endFill=0;" edge="1" parent="1" source="K6dq46eCguO7hU9ySryx-139" target="K6dq46eCguO7hU9ySryx-62">
          <mxGeometry relative="1" as="geometry">
            <Array as="points">
              <mxPoint x="1210" y="-2780" />
              <mxPoint x="900" y="-2780" />
            </Array>
          </mxGeometry>
        </mxCell>
        <mxCell id="K6dq46eCguO7hU9ySryx-139" value="DatoMaxCelcius" style="swimlane;fontStyle=0;align=center;verticalAlign=top;childLayout=stackLayout;horizontal=1;startSize=30;horizontalStack=0;resizeParent=1;resizeLast=0;collapsible=1;marginBottom=0;rounded=0;shadow=0;strokeWidth=1;fillColor=#fff2cc;strokeColor=#d6b656;" vertex="1" parent="1">
          <mxGeometry x="1130" y="-2740" width="160" height="70" as="geometry">
            <mxRectangle x="110" y="-20" width="160" height="26" as="alternateBounds" />
          </mxGeometry>
        </mxCell>
        <mxCell id="K6dq46eCguO7hU9ySryx-140" value="" style="line;html=1;strokeWidth=1;align=left;verticalAlign=middle;spacingTop=-1;spacingLeft=3;spacingRight=3;rotatable=0;labelPosition=right;points=[];portConstraint=eastwest;" vertex="1" parent="K6dq46eCguO7hU9ySryx-139">
          <mxGeometry y="30" width="160" height="8" as="geometry" />
        </mxCell>
        <mxCell id="K6dq46eCguO7hU9ySryx-141" value="+ prettyPrint() : String" style="text;align=left;verticalAlign=top;spacingLeft=4;spacingRight=4;overflow=hidden;rotatable=0;points=[[0,0.5],[1,0.5]];portConstraint=eastwest;rounded=0;shadow=0;html=0;" vertex="1" parent="K6dq46eCguO7hU9ySryx-139">
          <mxGeometry y="38" width="160" height="24" as="geometry" />
        </mxCell>
        <mxCell id="K6dq46eCguO7hU9ySryx-158" style="edgeStyle=orthogonalEdgeStyle;rounded=0;orthogonalLoop=1;jettySize=auto;html=1;endSize=12;startSize=12;endArrow=block;endFill=0;" edge="1" parent="1" source="K6dq46eCguO7hU9ySryx-143" target="K6dq46eCguO7hU9ySryx-62">
          <mxGeometry relative="1" as="geometry">
            <Array as="points">
              <mxPoint x="1010" y="-2780" />
              <mxPoint x="900" y="-2780" />
            </Array>
          </mxGeometry>
        </mxCell>
        <mxCell id="K6dq46eCguO7hU9ySryx-143" value="DatoMinCelcius" style="swimlane;fontStyle=0;align=center;verticalAlign=top;childLayout=stackLayout;horizontal=1;startSize=30;horizontalStack=0;resizeParent=1;resizeLast=0;collapsible=1;marginBottom=0;rounded=0;shadow=0;strokeWidth=1;fillColor=#fff2cc;strokeColor=#d6b656;" vertex="1" parent="1">
          <mxGeometry x="930" y="-2740" width="160" height="70" as="geometry">
            <mxRectangle x="110" y="-20" width="160" height="26" as="alternateBounds" />
          </mxGeometry>
        </mxCell>
        <mxCell id="K6dq46eCguO7hU9ySryx-144" value="" style="line;html=1;strokeWidth=1;align=left;verticalAlign=middle;spacingTop=-1;spacingLeft=3;spacingRight=3;rotatable=0;labelPosition=right;points=[];portConstraint=eastwest;" vertex="1" parent="K6dq46eCguO7hU9ySryx-143">
          <mxGeometry y="30" width="160" height="8" as="geometry" />
        </mxCell>
        <mxCell id="K6dq46eCguO7hU9ySryx-145" value="+ prettyPrint() : String" style="text;align=left;verticalAlign=top;spacingLeft=4;spacingRight=4;overflow=hidden;rotatable=0;points=[[0,0.5],[1,0.5]];portConstraint=eastwest;rounded=0;shadow=0;html=0;" vertex="1" parent="K6dq46eCguO7hU9ySryx-143">
          <mxGeometry y="38" width="160" height="24" as="geometry" />
        </mxCell>
        <mxCell id="K6dq46eCguO7hU9ySryx-167" style="edgeStyle=orthogonalEdgeStyle;rounded=0;orthogonalLoop=1;jettySize=auto;html=1;endSize=12;startSize=12;endArrow=block;endFill=0;" edge="1" parent="1" source="K6dq46eCguO7hU9ySryx-147" target="K6dq46eCguO7hU9ySryx-62">
          <mxGeometry relative="1" as="geometry">
            <Array as="points">
              <mxPoint x="1210" y="-2620" />
              <mxPoint x="900" y="-2620" />
            </Array>
          </mxGeometry>
        </mxCell>
        <mxCell id="K6dq46eCguO7hU9ySryx-147" value="DatoMaxFahrenheit" style="swimlane;fontStyle=0;align=center;verticalAlign=top;childLayout=stackLayout;horizontal=1;startSize=30;horizontalStack=0;resizeParent=1;resizeLast=0;collapsible=1;marginBottom=0;rounded=0;shadow=0;strokeWidth=1;fillColor=#fff2cc;strokeColor=#d6b656;" vertex="1" parent="1">
          <mxGeometry x="1130" y="-2580" width="160" height="70" as="geometry">
            <mxRectangle x="110" y="-20" width="160" height="26" as="alternateBounds" />
          </mxGeometry>
        </mxCell>
        <mxCell id="K6dq46eCguO7hU9ySryx-148" value="" style="line;html=1;strokeWidth=1;align=left;verticalAlign=middle;spacingTop=-1;spacingLeft=3;spacingRight=3;rotatable=0;labelPosition=right;points=[];portConstraint=eastwest;" vertex="1" parent="K6dq46eCguO7hU9ySryx-147">
          <mxGeometry y="30" width="160" height="8" as="geometry" />
        </mxCell>
        <mxCell id="K6dq46eCguO7hU9ySryx-149" value="+ prettyPrint() : String" style="text;align=left;verticalAlign=top;spacingLeft=4;spacingRight=4;overflow=hidden;rotatable=0;points=[[0,0.5],[1,0.5]];portConstraint=eastwest;rounded=0;shadow=0;html=0;" vertex="1" parent="K6dq46eCguO7hU9ySryx-147">
          <mxGeometry y="38" width="160" height="24" as="geometry" />
        </mxCell>
        <mxCell id="K6dq46eCguO7hU9ySryx-166" style="edgeStyle=orthogonalEdgeStyle;rounded=0;orthogonalLoop=1;jettySize=auto;html=1;endSize=12;startSize=12;endArrow=block;endFill=0;" edge="1" parent="1" source="K6dq46eCguO7hU9ySryx-151" target="K6dq46eCguO7hU9ySryx-62">
          <mxGeometry relative="1" as="geometry">
            <Array as="points">
              <mxPoint x="1010" y="-2620" />
              <mxPoint x="900" y="-2620" />
            </Array>
          </mxGeometry>
        </mxCell>
        <mxCell id="K6dq46eCguO7hU9ySryx-151" value="DatoMinFahrenheit" style="swimlane;fontStyle=0;align=center;verticalAlign=top;childLayout=stackLayout;horizontal=1;startSize=30;horizontalStack=0;resizeParent=1;resizeLast=0;collapsible=1;marginBottom=0;rounded=0;shadow=0;strokeWidth=1;fillColor=#fff2cc;strokeColor=#d6b656;" vertex="1" parent="1">
          <mxGeometry x="930" y="-2580" width="160" height="70" as="geometry">
            <mxRectangle x="110" y="-20" width="160" height="26" as="alternateBounds" />
          </mxGeometry>
        </mxCell>
        <mxCell id="K6dq46eCguO7hU9ySryx-152" value="" style="line;html=1;strokeWidth=1;align=left;verticalAlign=middle;spacingTop=-1;spacingLeft=3;spacingRight=3;rotatable=0;labelPosition=right;points=[];portConstraint=eastwest;" vertex="1" parent="K6dq46eCguO7hU9ySryx-151">
          <mxGeometry y="30" width="160" height="8" as="geometry" />
        </mxCell>
        <mxCell id="K6dq46eCguO7hU9ySryx-153" value="+ prettyPrint() : String" style="text;align=left;verticalAlign=top;spacingLeft=4;spacingRight=4;overflow=hidden;rotatable=0;points=[[0,0.5],[1,0.5]];portConstraint=eastwest;rounded=0;shadow=0;html=0;" vertex="1" parent="K6dq46eCguO7hU9ySryx-151">
          <mxGeometry y="38" width="160" height="24" as="geometry" />
        </mxCell>
        <mxCell id="K6dq46eCguO7hU9ySryx-173" value="&lt;font style=&quot;font-size: 12px;&quot;&gt;&lt;b style=&quot;font-size: 12px;&quot;&gt;&lt;i style=&quot;font-size: 12px;&quot;&gt;Concrete Decorator&lt;/i&gt;&lt;/b&gt;&lt;/font&gt;" style="text;html=1;align=center;verticalAlign=middle;whiteSpace=wrap;rounded=0;fontSize=12;" vertex="1" parent="1">
          <mxGeometry x="720" y="-2766" width="70" height="20" as="geometry" />
        </mxCell>
        <mxCell id="K6dq46eCguO7hU9ySryx-174" value="&lt;font style=&quot;font-size: 12px;&quot;&gt;&lt;b style=&quot;font-size: 12px;&quot;&gt;&lt;i style=&quot;font-size: 12px;&quot;&gt;Concrete Decorator&lt;/i&gt;&lt;/b&gt;&lt;/font&gt;" style="text;html=1;align=center;verticalAlign=middle;whiteSpace=wrap;rounded=0;fontSize=12;" vertex="1" parent="1">
          <mxGeometry x="930" y="-2766" width="70" height="20" as="geometry" />
        </mxCell>
        <mxCell id="K6dq46eCguO7hU9ySryx-176" value="&lt;font style=&quot;font-size: 12px;&quot;&gt;&lt;b style=&quot;font-size: 12px;&quot;&gt;&lt;i style=&quot;font-size: 12px;&quot;&gt;Concrete Decorator&lt;/i&gt;&lt;/b&gt;&lt;/font&gt;" style="text;html=1;align=center;verticalAlign=middle;whiteSpace=wrap;rounded=0;fontSize=12;" vertex="1" parent="1">
          <mxGeometry x="1130" y="-2766" width="70" height="20" as="geometry" />
        </mxCell>
        <mxCell id="K6dq46eCguO7hU9ySryx-177" value="&lt;font style=&quot;font-size: 12px;&quot;&gt;&lt;b style=&quot;font-size: 12px;&quot;&gt;&lt;i style=&quot;font-size: 12px;&quot;&gt;Concrete Decorator&lt;/i&gt;&lt;/b&gt;&lt;/font&gt;" style="text;html=1;align=center;verticalAlign=middle;whiteSpace=wrap;rounded=0;fontSize=12;" vertex="1" parent="1">
          <mxGeometry x="520" y="-2610" width="70" height="30" as="geometry" />
        </mxCell>
        <mxCell id="K6dq46eCguO7hU9ySryx-178" value="&lt;font style=&quot;font-size: 12px;&quot;&gt;&lt;b style=&quot;font-size: 12px;&quot;&gt;&lt;i style=&quot;font-size: 12px;&quot;&gt;Concrete Decorator&lt;/i&gt;&lt;/b&gt;&lt;/font&gt;" style="text;html=1;align=center;verticalAlign=middle;whiteSpace=wrap;rounded=0;fontSize=12;" vertex="1" parent="1">
          <mxGeometry x="720" y="-2610" width="70" height="30" as="geometry" />
        </mxCell>
        <mxCell id="K6dq46eCguO7hU9ySryx-179" value="&lt;font style=&quot;font-size: 12px;&quot;&gt;&lt;b style=&quot;font-size: 12px;&quot;&gt;&lt;i style=&quot;font-size: 12px;&quot;&gt;Concrete Decorator&lt;/i&gt;&lt;/b&gt;&lt;/font&gt;" style="text;html=1;align=center;verticalAlign=middle;whiteSpace=wrap;rounded=0;fontSize=12;" vertex="1" parent="1">
          <mxGeometry x="930" y="-2610" width="70" height="30" as="geometry" />
        </mxCell>
        <mxCell id="K6dq46eCguO7hU9ySryx-180" value="&lt;font style=&quot;font-size: 12px;&quot;&gt;&lt;b style=&quot;font-size: 12px;&quot;&gt;&lt;i style=&quot;font-size: 12px;&quot;&gt;Concrete Decorator&lt;/i&gt;&lt;/b&gt;&lt;/font&gt;" style="text;html=1;align=center;verticalAlign=middle;whiteSpace=wrap;rounded=0;fontSize=12;" vertex="1" parent="1">
          <mxGeometry x="1130" y="-2610" width="70" height="30" as="geometry" />
        </mxCell>
        <mxCell id="K6dq46eCguO7hU9ySryx-181" value="&lt;font style=&quot;font-size: 12px;&quot;&gt;&lt;b style=&quot;font-size: 12px;&quot;&gt;&lt;i style=&quot;font-size: 12px;&quot;&gt;Concrete Decorator&lt;/i&gt;&lt;/b&gt;&lt;/font&gt;" style="text;html=1;align=center;verticalAlign=middle;whiteSpace=wrap;rounded=0;fontSize=12;" vertex="1" parent="1">
          <mxGeometry x="620" y="-2440" width="70" height="30" as="geometry" />
        </mxCell>
        <mxCell id="K6dq46eCguO7hU9ySryx-182" value="&lt;font style=&quot;font-size: 12px;&quot;&gt;&lt;b style=&quot;font-size: 12px;&quot;&gt;&lt;i style=&quot;font-size: 12px;&quot;&gt;Concrete Decorator&lt;/i&gt;&lt;/b&gt;&lt;/font&gt;" style="text;html=1;align=center;verticalAlign=middle;whiteSpace=wrap;rounded=0;fontSize=12;" vertex="1" parent="1">
          <mxGeometry x="820" y="-2435" width="70" height="25" as="geometry" />
        </mxCell>
        <mxCell id="K6dq46eCguO7hU9ySryx-183" value="&lt;font style=&quot;font-size: 12px;&quot;&gt;&lt;b style=&quot;font-size: 12px;&quot;&gt;&lt;i style=&quot;font-size: 12px;&quot;&gt;Concrete Decorator&lt;/i&gt;&lt;/b&gt;&lt;/font&gt;" style="text;html=1;align=center;verticalAlign=middle;whiteSpace=wrap;rounded=0;fontSize=12;" vertex="1" parent="1">
          <mxGeometry x="1020" y="-2440" width="70" height="30" as="geometry" />
        </mxCell>
        <mxCell id="izaJb8q6CuFdLfl8Feap-1" value="&lt;font size=&quot;1&quot; style=&quot;&quot;&gt;&lt;b style=&quot;&quot;&gt;&lt;i style=&quot;font-size: 14px;&quot;&gt;Component&lt;/i&gt;&lt;/b&gt;&lt;/font&gt;" style="text;html=1;align=center;verticalAlign=middle;whiteSpace=wrap;rounded=0;fontSize=16;" vertex="1" parent="1">
          <mxGeometry x="480" y="-3300" width="80" height="20" as="geometry" />
        </mxCell>
        <mxCell id="izaJb8q6CuFdLfl8Feap-2" value="&lt;font size=&quot;1&quot; style=&quot;&quot;&gt;&lt;b style=&quot;&quot;&gt;&lt;i style=&quot;font-size: 14px;&quot;&gt;Concrete Component&lt;/i&gt;&lt;/b&gt;&lt;/font&gt;" style="text;html=1;align=center;verticalAlign=middle;whiteSpace=wrap;rounded=0;fontSize=16;" vertex="1" parent="1">
          <mxGeometry x="160" y="-3320" width="80" height="40" as="geometry" />
        </mxCell>
        <mxCell id="izaJb8q6CuFdLfl8Feap-3" value="&lt;font style=&quot;&quot; size=&quot;1&quot;&gt;&lt;b style=&quot;&quot;&gt;&lt;i style=&quot;font-size: 14px;&quot;&gt;Adaptee&lt;/i&gt;&lt;/b&gt;&lt;/font&gt;" style="text;html=1;align=center;verticalAlign=middle;whiteSpace=wrap;rounded=0;fontSize=16;fontColor=#009900;" vertex="1" parent="1">
          <mxGeometry x="290" y="-3040" width="70" height="20" as="geometry" />
        </mxCell>
        <mxCell id="izaJb8q6CuFdLfl8Feap-4" value="&lt;font style=&quot;&quot; size=&quot;1&quot;&gt;&lt;b style=&quot;&quot;&gt;&lt;i style=&quot;font-size: 14px;&quot;&gt;Adapter&lt;/i&gt;&lt;/b&gt;&lt;/font&gt;" style="text;html=1;align=center;verticalAlign=middle;whiteSpace=wrap;rounded=0;fontSize=16;fontColor=#009900;" vertex="1" parent="1">
          <mxGeometry x="290" y="-3300" width="70" height="20" as="geometry" />
        </mxCell>
        <mxCell id="izaJb8q6CuFdLfl8Feap-12" value="componente" style="text;html=1;align=center;verticalAlign=middle;whiteSpace=wrap;rounded=0;fontSize=14;" vertex="1" parent="1">
          <mxGeometry x="900" y="-3090" width="90" height="15" as="geometry" />
        </mxCell>
        <mxCell id="izaJb8q6CuFdLfl8Feap-13" value="1" style="text;html=1;align=center;verticalAlign=middle;whiteSpace=wrap;rounded=0;fontSize=16;" vertex="1" parent="1">
          <mxGeometry x="870" y="-3090" width="20" height="15" as="geometry" />
        </mxCell>
        <mxCell id="izaJb8q6CuFdLfl8Feap-15" value="&lt;font style=&quot;font-size: 13px;&quot;&gt;HomeweatherStation&lt;/font&gt;" style="text;html=1;align=center;verticalAlign=middle;whiteSpace=wrap;rounded=0;fontSize=14;" vertex="1" parent="1">
          <mxGeometry x="260" y="-3075" width="130" height="15" as="geometry" />
        </mxCell>
        <mxCell id="izaJb8q6CuFdLfl8Feap-16" value="1" style="text;html=1;align=center;verticalAlign=middle;whiteSpace=wrap;rounded=0;fontSize=16;" vertex="1" parent="1">
          <mxGeometry x="230" y="-3075" width="20" height="15" as="geometry" />
        </mxCell>
      </root>
    </mxGraphModel>
  </diagram>
</mxfile>
